<?xml version="1.0" encoding="UTF-8" standalone="no"?>
<!-- Created with Inkscape (http://www.inkscape.org/) -->

<svg
   xmlns:dc="http://purl.org/dc/elements/1.1/"
   xmlns:cc="http://creativecommons.org/ns#"
   xmlns:rdf="http://www.w3.org/1999/02/22-rdf-syntax-ns#"
   xmlns:svg="http://www.w3.org/2000/svg"
   xmlns="http://www.w3.org/2000/svg"
   xmlns:sodipodi="http://sodipodi.sourceforge.net/DTD/sodipodi-0.dtd"
   xmlns:inkscape="http://www.inkscape.org/namespaces/inkscape"
   width="744.09448819"
   height="1052.3622047"
   id="svg2"
   version="1.1"
   inkscape:version="0.48.0 r9654"
   inkscape:export-filename="C:\Users\kehong.liu\bitmap2.png"
   inkscape:export-xdpi="5.3731341"
   inkscape:export-ydpi="5.3731341"
   sodipodi:docname="New document 1">
  <defs
     id="defs4">
    <linearGradient
       id="linearGradient3886">
      <stop
         style="stop-color:#cccccc;stop-opacity:1;"
         offset="0"
         id="stop3888" />
      <stop
         style="stop-color:#cccccc;stop-opacity:0;"
         offset="1"
         id="stop3890" />
    </linearGradient>
  </defs>
  <sodipodi:namedview
     id="base"
     pagecolor="#ffffff"
     bordercolor="#666666"
     borderopacity="1.0"
     inkscape:pageopacity="0.0"
     inkscape:pageshadow="2"
     inkscape:zoom="0.35"
     inkscape:cx="-406.34797"
     inkscape:cy="519.97041"
     inkscape:document-units="px"
     inkscape:current-layer="g3874"
     showgrid="false"
     inkscape:window-width="1366"
     inkscape:window-height="706"
     inkscape:window-x="-8"
     inkscape:window-y="-8"
     inkscape:window-maximized="1" />
  <metadata
     id="metadata7">
    <rdf:RDF>
      <cc:Work
         rdf:about="">
        <dc:format>image/svg+xml</dc:format>
        <dc:type
           rdf:resource="http://purl.org/dc/dcmitype/StillImage" />
        <dc:title></dc:title>
      </cc:Work>
    </rdf:RDF>
  </metadata>
  <g
     inkscape:label="Layer 1"
     inkscape:groupmode="layer"
     id="layer1"
     style="display:inline">
    <path
       sodipodi:type="arc"
       style="fill:#008080;fill-opacity:1;stroke:#bfd438;stroke-opacity:1"
       id="path2985"
       sodipodi:cx="282.85715"
       sodipodi:cy="458.07648"
       sodipodi:rx="100"
       sodipodi:ry="100"
       d="m 382.85715,458.07648 a 100,100 0 1 1 -200,0 100,100 0 1 1 200,0 z"
       inkscape:export-filename="C:\Users\kehong.liu\path3877.png"
       inkscape:export-xdpi="5.3731341"
       inkscape:export-ydpi="5.3731341" />
  </g>
  <g
     inkscape:groupmode="layer"
     id="layer2"
     inkscape:label="Layer"
     style="display:inline">
    <path
       style="fill:#cccccc;fill-opacity:1;stroke:none"
       d="m 273.00716,532.6518 c -31.34485,-5.61657 -55.03671,-27.4359 -62.75207,-57.79233 -6.34968,-24.9831 1.01713,-50.29403 20.23022,-69.50712 14.86832,-14.86831 30.85586,-21.42211 52.44271,-21.49791 15.53838,-0.0545 19.32094,0.78481 32.27503,7.16209 30.98827,15.25547 47.61054,47.71224 41.17853,80.40552 -6.72383,34.17655 -32.2608,57.46953 -66.96082,61.07677 -6.0102,0.6248 -13.39632,0.69364 -16.4136,0.15298 z"
       id="path3017"
       inkscape:connector-curvature="0"
       inkscape:export-filename="C:\Users\kehong.liu\path3877.png"
       inkscape:export-xdpi="5.3731341"
       inkscape:export-ydpi="5.3731341" />
  </g>
  <g
     style="display:none"
     inkscape:label="Layer copy"
     id="g3874"
     inkscape:groupmode="layer">
    <path
       inkscape:connector-curvature="0"
       id="path3876"
       d="m 273.00716,532.6518 c -31.34485,-5.61657 -55.03671,-27.4359 -62.75207,-57.79233 -6.34968,-24.9831 1.01713,-50.29403 20.23022,-69.50712 14.86832,-14.86831 30.85586,-21.42211 52.44271,-21.49791 15.53838,-0.0545 19.32094,0.78481 32.27503,7.16209 30.98827,15.25547 47.61054,47.71224 41.17853,80.40552 -6.72383,34.17655 -32.2608,57.46953 -66.96082,61.07677 -6.0102,0.6248 -13.39632,0.69364 -16.4136,0.15298 z"
       style="fill:#ffbc09;fill-opacity:0.85340313;stroke:none"
       inkscape:export-xdpi="5.3731341"
       inkscape:export-ydpi="5.3731341"
       inkscape:export-filename="C:\Users\kehong.liu\path3877.png" />
  </g>
</svg>
