<?xml version="1.0" encoding="UTF-8" standalone="no"?>
<!-- Created with Inkscape (http://www.inkscape.org/) -->

<svg
   xmlns:dc="http://purl.org/dc/elements/1.1/"
   xmlns:cc="http://creativecommons.org/ns#"
   xmlns:rdf="http://www.w3.org/1999/02/22-rdf-syntax-ns#"
   xmlns:svg="http://www.w3.org/2000/svg"
   xmlns="http://www.w3.org/2000/svg"
   xmlns:sodipodi="http://sodipodi.sourceforge.net/DTD/sodipodi-0.dtd"
   xmlns:inkscape="http://www.inkscape.org/namespaces/inkscape"
   width="744.09448819"
   height="1052.3622047"
   id="svg2"
   version="1.1"
   inkscape:version="0.48.1 "
   sodipodi:docname="instantTaskIcons.svg">
  <defs
     id="defs4" />
  <sodipodi:namedview
     id="base"
     pagecolor="#ffffff"
     bordercolor="#666666"
     borderopacity="1.0"
     inkscape:pageopacity="0.0"
     inkscape:pageshadow="2"
     inkscape:zoom="0.35"
     inkscape:cx="-44.406516"
     inkscape:cy="974.70727"
     inkscape:document-units="px"
     inkscape:current-layer="layer1"
     showgrid="false"
     inkscape:window-width="1280"
     inkscape:window-height="738"
     inkscape:window-x="-8"
     inkscape:window-y="-8"
     inkscape:window-maximized="1" />
  <metadata
     id="metadata7">
    <rdf:RDF>
      <cc:Work
         rdf:about="">
        <dc:format>image/svg+xml</dc:format>
        <dc:type
           rdf:resource="http://purl.org/dc/dcmitype/StillImage" />
        <dc:title></dc:title>
      </cc:Work>
    </rdf:RDF>
  </metadata>
  <g
     inkscape:label="Layer 1"
     inkscape:groupmode="layer"
     id="layer1">
    <rect
       style="fill:#8eafaf;fill-opacity:1"
       id="rect3906-1-2"
       width="348.57144"
       height="194.28572"
       x="-467.14285"
       y="78.790779"
       rx="25"
       ry="27.868853" />
    <rect
       style="fill:#8eafaf;fill-opacity:1"
       id="rect3906-1-6"
       width="348.57144"
       height="194.28572"
       x="-467.14285"
       y="523.79083"
       rx="25"
       ry="27.868853" />
    <rect
       style="fill:#8eafaf;fill-opacity:1"
       id="rect3906-1-0"
       width="348.57144"
       height="194.28572"
       x="-467.14285"
       y="301.29083"
       rx="25"
       ry="27.868853" />
    <rect
       style="fill:#8eafaf;fill-opacity:1"
       id="rect3906-1"
       width="348.57144"
       height="194.28572"
       x="-467.14285"
       y="-143.70927"
       rx="25"
       ry="27.868853" />
    <g
       id="g3926"
       transform="translate(-154.28572,-572.85714)">
      <rect
         ry="27.868853"
         rx="25"
         y="206.64789"
         x="-312.85715"
         height="194.28572"
         width="348.57144"
         id="rect3906"
         style="fill:#8eafaf;fill-opacity:1" />
      <path
         id="rect2985-7"
         d="m -184.50315,218.63504 0,57.15625 -55.75,0.0625 0.0312,45.71875 55.71875,-0.0625 0,57.125 45.6875,0 0,-57.1875 58.593753,-0.0625 -0.0312,-45.71875 -58.562503,0.0625 0,-57.09375 -45.6875,0 z"
         style="fill:#8e68dc;fill-opacity:1;fill-rule:evenodd;stroke:#000000;stroke-width:1px;stroke-linecap:butt;stroke-linejoin:miter;stroke-opacity:1"
         inkscape:connector-curvature="0" />
      <path
         transform="matrix(-0.90614837,0.23878181,-0.38082701,-0.56798476,419.989,452.06401)"
         inkscape:transform-center-y="14.213909"
         inkscape:transform-center-x="10.564945"
         d="m 424.28571,390.93362 -52.88782,-22.32235 -52.88781,-22.32235 45.77563,-34.64102 45.77562,-34.64101 7.11219,56.96337 z"
         inkscape:randomized="0"
         inkscape:rounded="0"
         inkscape:flatsided="false"
         sodipodi:arg2="1.9701825"
         sodipodi:arg1="0.9229849"
         sodipodi:r2="33.143166"
         sodipodi:r1="66.286331"
         sodipodi:cy="338.07648"
         sodipodi:cx="384.28571"
         sodipodi:sides="3"
         id="path3006-4"
         style="fill:#8e685b;fill-opacity:1;fill-rule:evenodd;stroke:#000000;stroke-width:1px;stroke-linecap:butt;stroke-linejoin:miter;stroke-opacity:1"
         sodipodi:type="star" />
    </g>
    <g
       id="g3978"
       transform="translate(-802.85714,237.14286)">
      <path
         inkscape:connector-curvature="0"
         id="rect2985"
         d="m 454.29911,-366.19643 0,57.15625 -55.75,0.0625 0.0312,45.71875 55.71875,-0.0625 0,57.125 45.6875,0 0,-57.1875 58.59375,-0.0625 -0.0312,-45.71875 -58.5625,0.0625 0,-57.09375 -45.6875,0 z"
         style="fill:#8e68dc;fill-opacity:1;fill-rule:evenodd;stroke:#000000;stroke-width:1px;stroke-linecap:butt;stroke-linejoin:miter;stroke-opacity:1" />
      <path
         transform="matrix(0.23912175,0.90605872,-0.56784185,0.38104007,683.44547,-725.49061)"
         inkscape:transform-center-y="10.571087"
         inkscape:transform-center-x="-14.228487"
         d="m 424.28571,390.93362 -52.88782,-22.32235 -52.88781,-22.32235 45.77563,-34.64102 45.77562,-34.64101 7.11219,56.96337 z"
         inkscape:randomized="0"
         inkscape:rounded="0"
         inkscape:flatsided="false"
         sodipodi:arg2="1.9701825"
         sodipodi:arg1="0.9229849"
         sodipodi:r2="33.143166"
         sodipodi:r1="66.286331"
         sodipodi:cy="338.07648"
         sodipodi:cx="384.28571"
         sodipodi:sides="3"
         id="path3006-4-0"
         style="fill:#8e685b;fill-opacity:1;fill-rule:evenodd;stroke:#000000;stroke-width:1px;stroke-linecap:butt;stroke-linejoin:miter;stroke-opacity:1"
         sodipodi:type="star" />
    </g>
    <path
       inkscape:connector-curvature="0"
       style="fill:#8e68dc;fill-opacity:1;fill-rule:evenodd;stroke:#000000;stroke-width:1px;stroke-linecap:butt;stroke-linejoin:miter;stroke-opacity:1"
       d="m -260.05702,100.2963 -39.13223,41.65941 -40.67722,-38.12388 -31.27876,33.34433 40.65445,38.10248 -39.11083,41.63663 33.30019,31.2801 39.15362,-41.68218 42.74995,40.07086 31.27875,-33.34433 -42.72716,-40.04946 39.08943,-41.61385 -33.30019,-31.28011 z"
       id="rect2985-9" />
    <path
       style="fill:#8e68dc;fill-opacity:1;fill-rule:evenodd;stroke:#000000;stroke-width:0.77821141px;stroke-linecap:butt;stroke-linejoin:miter;stroke-opacity:1"
       d="m -274.3125,337.92411 -0.0312,35 -137.09375,0 0,42.875 137.09375,0 -0.0312,35 30.65625,-28.15625 29.28125,-26.90625 0,46.65625 23.5625,0 0,-96.0625 -23.5625,0 0,46.875 -29.25,-27 -30.625,-28.28125 z"
       id="path3006-4-0-4"
       inkscape:connector-curvature="0" />
    <path
       style="fill:#8e68dc;fill-opacity:1;fill-rule:evenodd;stroke:#000000;stroke-width:0.77821141px;stroke-linecap:butt;stroke-linejoin:miter;stroke-opacity:1"
       d="m -325.54464,560.21875 -30.59375,28.28125 -29.28125,27.03125 0,-46.90625 -23.53125,0 0,96.0625 23.53125,0 0,-46.6875 29.3125,26.9375 30.625,28.125 -0.0312,-35 137.09375,0 0,-42.84375 -137.09375,0 -0.0312,-35 z"
       id="path3006-4-0-4-8"
       inkscape:connector-curvature="0" />
  </g>
</svg>
