<?xml version="1.0" encoding="UTF-8" standalone="no"?>
<!-- Created with Inkscape (http://www.inkscape.org/) -->

<svg
   xmlns:dc="http://purl.org/dc/elements/1.1/"
   xmlns:cc="http://creativecommons.org/ns#"
   xmlns:rdf="http://www.w3.org/1999/02/22-rdf-syntax-ns#"
   xmlns:svg="http://www.w3.org/2000/svg"
   xmlns="http://www.w3.org/2000/svg"
   xmlns:sodipodi="http://sodipodi.sourceforge.net/DTD/sodipodi-0.dtd"
   xmlns:inkscape="http://www.inkscape.org/namespaces/inkscape"
   width="744.09448819"
   height="1052.3622047"
   id="svg2"
   version="1.1"
   inkscape:version="0.48.2 r9819"
   sodipodi:docname="mwf.svg"
   inkscape:export-filename="E:\dev\cflow\inkscape-src\mwf.png"
   inkscape:export-xdpi="2999.697"
   inkscape:export-ydpi="2999.697">
  <defs
     id="defs4" />
  <sodipodi:namedview
     id="base"
     pagecolor="#ffffff"
     bordercolor="#666666"
     borderopacity="1.0"
     inkscape:pageopacity="0.0"
     inkscape:pageshadow="2"
     inkscape:zoom="1.979899"
     inkscape:cx="155.54058"
     inkscape:cy="640.34154"
     inkscape:document-units="px"
     inkscape:current-layer="layer1"
     showgrid="false"
     showguides="true"
     inkscape:guide-bbox="true"
     inkscape:window-width="1920"
     inkscape:window-height="1018"
     inkscape:window-x="-8"
     inkscape:window-y="-8"
     inkscape:window-maximized="1">
    <sodipodi:guide
       orientation="0,1"
       position="375.71429,710"
       id="guide2997" />
  </sodipodi:namedview>
  <metadata
     id="metadata7">
    <rdf:RDF>
      <cc:Work
         rdf:about="">
        <dc:format>image/svg+xml</dc:format>
        <dc:type
           rdf:resource="http://purl.org/dc/dcmitype/StillImage" />
        <dc:title></dc:title>
      </cc:Work>
    </rdf:RDF>
  </metadata>
  <g
     inkscape:label="Layer 1"
     inkscape:groupmode="layer"
     id="layer1">
    <path
       style="fill:#004580;fill-opacity:1"
       d="M 299.75 337.3125 C 297.20675 337.3185 294.58303 337.63226 291.9375 338.28125 C 283.1995 340.42484 275.84203 347.7267 273.1875 356.875 C 271.95678 361.11641 271.96544 360.68538 271.8125 396.21875 L 271.6875 429.8125 L 271.03125 431.0625 C 270.19104 432.69394 269.12247 433.29481 267.28125 433.15625 C 266.14317 433.07065 265.79166 432.92246 265.21875 432.28125 C 264.81802 431.83276 264.41229 430.97548 264.25 430.21875 C 264.05455 429.3076 263.96875 419.15588 263.96875 396.34375 L 263.96875 363.78125 L 249.84375 363.78125 L 235.6875 363.78125 L 235.625 396.28125 C 235.5577 426.22169 235.52404 428.89037 235.125 430.0625 C 234.4527 432.03728 232.99282 433.21875 231.1875 433.21875 C 229.74664 433.21875 228.95304 432.85433 228.375 431.90625 C 227.87859 431.09201 227.85275 430.61672 227.84375 400.78125 C 227.83475 370.58228 227.72086 364.57907 227 360.5 C 224.948 348.88851 218.69966 341.4486 208.96875 339.03125 C 202.28805 337.37163 193.48574 338.10259 188.21875 340.78125 C 184.81852 342.51053 181.1304 345.86967 178.53125 349.59375 C 177.72138 350.75414 176.97809 351.61866 176.875 351.5 C 176.77191 351.38133 176.13987 350.43265 175.46875 349.40625 C 173.98179 347.13211 170.67661 343.74775 168.625 342.375 C 164.11508 339.35736 160.10468 338.1925 154.125 338.1875 C 146.08746 338.1815 139.89352 340.62653 134.65625 345.84375 C 130.65729 349.8274 128.46934 353.8663 127.03125 359.875 C 126.48916 362.14024 126.48495 362.25157 126.40625 399.1875 L 126.3125 436.25 L 140.46875 436.25 L 154.625 436.25 L 154.625 405.375 C 154.63 388.39497 154.75359 373.39007 154.875 372.03125 C 155.25735 367.75207 156.67824 365.90584 159.40625 366.125 C 160.54472 366.2165 160.88663 366.3485 161.46875 367 C 162.85974 368.5568 162.81585 367.13638 162.90625 402.96875 L 162.96875 436.25 L 177.09375 436.25 L 191.25 436.25 L 191.25 403.59375 C 191.25 374.29434 191.2911 370.79311 191.65625 369.5625 C 192.17185 367.82491 192.7835 366.9867 193.875 366.46875 C 195.65633 365.62345 197.67802 366.12097 198.5 367.625 C 198.91832 368.39043 198.96507 370.55671 199.09375 402.28125 C 199.24357 439.21747 199.17685 437.58566 200.71875 442.90625 C 203.8834 453.8268 211.34293 460.0546 222.4375 461.0625 C 227.28358 461.50275 232.82841 460.83201 237.03125 459.25 C 240.33804 458.00527 245.45704 453.61022 248.15625 449.75 C 248.83609 448.77773 249.4894 447.89976 249.59375 447.78125 C 249.69809 447.66274 250.20027 448.21826 250.71875 449.03125 C 253.35758 453.16902 257.15269 456.70586 261.0625 458.65625 C 268.67136 462.45189 279.74786 461.92179 287.34375 457.375 C 292.7115 454.16196 297.16399 448.40504 298.9375 442.4375 C 300.15499 438.34084 300.14794 438.9361 300.28125 408.4375 L 309.71875 408.4375 L 309.71875 384.15625 L 300.4375 384.15625 C 300.52607 373.67092 300.62727 369.00949 300.78125 368.5625 C 301.64075 366.0674 302.86207 365.15868 305.09375 365.34375 C 306.28627 365.44265 306.5775 365.58801 307.15625 366.28125 C 307.56017 366.76509 307.95552 367.65609 308.125 368.5 C 308.1633 368.69083 308.18895 369.32719 308.21875 370.1875 L 309.34375 370.21875 L 309.34375 338.96875 C 306.40944 337.84713 303.15647 337.30446 299.75 337.3125 z "
       id="path3029"
       inkscape:export-xdpi="90"
       inkscape:export-ydpi="90" />
  </g>
</svg>
