<?xml version="1.0" encoding="UTF-8" standalone="no"?>
<!-- Created with Inkscape (http://www.inkscape.org/) -->

<svg
   xmlns:dc="http://purl.org/dc/elements/1.1/"
   xmlns:cc="http://creativecommons.org/ns#"
   xmlns:rdf="http://www.w3.org/1999/02/22-rdf-syntax-ns#"
   xmlns:svg="http://www.w3.org/2000/svg"
   xmlns="http://www.w3.org/2000/svg"
   xmlns:sodipodi="http://sodipodi.sourceforge.net/DTD/sodipodi-0.dtd"
   xmlns:inkscape="http://www.inkscape.org/namespaces/inkscape"
   width="42"
   height="42"
   id="svg2"
   version="1.1"
   inkscape:version="0.48.0 r9654"
   inkscape:export-filename="E:\dev\cflow\WebContent\images\hp_scalable.png"
   inkscape:export-xdpi="90"
   inkscape:export-ydpi="90"
   sodipodi:docname="New document 1">
  <defs
     id="defs4" />
  <sodipodi:namedview
     id="base"
     pagecolor="#ffffff"
     bordercolor="#666666"
     borderopacity="1.0"
     inkscape:pageopacity="0.0"
     inkscape:pageshadow="2"
     inkscape:zoom="1.979899"
     inkscape:cx="29.398762"
     inkscape:cy="-78.737015"
     inkscape:document-units="px"
     inkscape:current-layer="g4179"
     showgrid="false"
     inkscape:window-width="1366"
     inkscape:window-height="706"
     inkscape:window-x="-8"
     inkscape:window-y="-8"
     inkscape:window-maximized="1" />
  <metadata
     id="metadata7">
    <rdf:RDF>
      <cc:Work
         rdf:about="">
        <dc:format>image/svg+xml</dc:format>
        <dc:type
           rdf:resource="http://purl.org/dc/dcmitype/StillImage" />
        <dc:title></dc:title>
      </cc:Work>
    </rdf:RDF>
  </metadata>
  <g
     inkscape:label="Layer 1"
     inkscape:groupmode="layer"
     id="layer1"
     transform="translate(0,-1010.3622)">
    <path
       sodipodi:type="arc"
       style="fill:#699ad6;fill-opacity:1;stroke:#ded7e9;stroke-opacity:0.19617224999999999"
       id="path2985"
       sodipodi:cx="20.518724"
       sodipodi:cy="20.597393"
       sodipodi:rx="20.392454"
       sodipodi:ry="20.392454"
       d="m 40.911179,20.597393 a 20.392454,20.392454 0 1 1 -40.78490871,0 20.392454,20.392454 0 1 1 40.78490871,0 z"
       transform="translate(0.63134534,1010.741)" />
  </g>
  <g
     inkscape:groupmode="layer"
     id="layer2"
     inkscape:label="flexible"
     style="display:none">
    <path
       sodipodi:type="arc"
       style="fill:#691437;fill-opacity:0.79904306;stroke:#ded7e9;stroke-opacity:0.19617226"
       id="path2985-6"
       sodipodi:cx="20.518724"
       sodipodi:cy="20.597393"
       sodipodi:rx="20.392454"
       sodipodi:ry="20.392454"
       d="m 40.911179,20.597393 a 20.392454,20.392454 0 1 1 -40.78490871,0 20.392454,20.392454 0 1 1 40.78490871,0 z"
       transform="matrix(0.26266076,0,0,0.26266076,6.6060994,15.881793)" />
    <path
       sodipodi:type="arc"
       style="fill:#f8f8ed;fill-opacity:0.92344498;stroke:#ded7e9;stroke-opacity:0.19617226"
       id="path2985-6-9"
       sodipodi:cx="20.518724"
       sodipodi:cy="20.597393"
       sodipodi:rx="20.392454"
       sodipodi:ry="20.392454"
       d="m 40.911179,20.597393 a 20.392454,20.392454 0 1 1 -40.78490871,0 20.392454,20.392454 0 1 1 40.78490871,0 z"
       transform="matrix(0.16596053,0,0,0.16596053,25.510319,8.0245927)" />
    <path
       sodipodi:type="arc"
       style="fill:#f8f8ed;fill-opacity:0.92344498;stroke:#ded7e9;stroke-opacity:0.19617226"
       id="path2985-6-9-8"
       sodipodi:cx="20.518724"
       sodipodi:cy="20.597393"
       sodipodi:rx="20.392454"
       sodipodi:ry="20.392454"
       d="m 40.911179,20.597393 a 20.392454,20.392454 0 1 1 -40.78490871,0 20.392454,20.392454 0 1 1 40.78490871,0 z"
       transform="matrix(0.16596053,0,0,0.16596053,31.066159,17.136293)" />
    <path
       sodipodi:type="arc"
       style="fill:#f8f8ed;fill-opacity:0.92344498;stroke:#ded7e9;stroke-opacity:0.19617226"
       id="path2985-6-9-2"
       sodipodi:cx="20.518724"
       sodipodi:cy="20.597393"
       sodipodi:rx="20.392454"
       sodipodi:ry="20.392454"
       d="m 40.911179,20.597393 a 20.392454,20.392454 0 1 1 -40.78490871,0 20.392454,20.392454 0 1 1 40.78490871,0 z"
       transform="matrix(0.16596053,0,0,0.16596053,25.005239,26.712292)" />
  </g>
  <g
     style="display:inline"
     inkscape:label="scalable"
     id="g4179"
     inkscape:groupmode="layer">
    <path
       style="fill:#f8f8ed;fill-opacity:0.92344498;stroke:#ded7e9;stroke-width:0.67259097;stroke-opacity:0.19617226"
       d="m 31.541568,21.25362 c 0,7.42645 -6.263611,13.446777 -13.990167,13.446777 -7.7265553,0 -13.9901668,-6.020327 -13.9901668,-13.446777 0,-7.426449 6.2636115,-13.446777 13.9901668,-13.446777 7.726556,0 13.990167,6.020328 13.990167,13.446777 z"
       id="path4183"
       inkscape:connector-curvature="0" />
    <path
       transform="matrix(0.16596053,0,0,0.16596053,45.713371,41.379954)"
       d="m 40.911179,20.597393 a 20.392454,20.392454 0 1 1 -40.78490871,0 20.392454,20.392454 0 1 1 40.78490871,0 z"
       sodipodi:ry="20.392454"
       sodipodi:rx="20.392454"
       sodipodi:cy="20.597393"
       sodipodi:cx="20.518724"
       id="path4185"
       style="fill:#f8f8ed;fill-opacity:0.92344498;stroke:#ded7e9;stroke-opacity:0.19617226"
       sodipodi:type="arc" />
    <path
       transform="matrix(0.26266076,0,0,0.26266076,6.732367,15.881746)"
       d="m 40.911179,20.597393 a 20.392454,20.392454 0 1 1 -40.78490871,0 20.392454,20.392454 0 1 1 40.78490871,0 z"
       sodipodi:ry="20.392454"
       sodipodi:rx="20.392454"
       sodipodi:cy="20.597393"
       sodipodi:cx="20.518724"
       id="path4181"
       style="fill:#691437;fill-opacity:0.79904306;stroke:#ded7e9;stroke-opacity:0.19617226;display:inline"
       sodipodi:type="arc" />
  </g>
  <g
     inkscape:groupmode="layer"
     id="layer3"
     inkscape:label="simple"
     style="display:none">
    <path
       sodipodi:type="arc"
       style="fill:#691437;fill-opacity:0.79904306;stroke:#ded7e9;stroke-opacity:0.19617226;display:inline"
       id="path2985-6-5"
       sodipodi:cx="20.518724"
       sodipodi:cy="20.597393"
       sodipodi:rx="20.392454"
       sodipodi:ry="20.392454"
       d="m 40.911179,20.597393 a 20.392454,20.392454 0 1 1 -40.78490871,0 20.392454,20.392454 0 1 1 40.78490871,0 z"
       transform="matrix(0.26266076,0,0,0.26266076,5.0908691,16.386869)" />
    <path
       sodipodi:type="arc"
       style="fill:#f8f8ed;fill-opacity:0.92344498;stroke:#ded7e9;stroke-opacity:0.19617226;display:inline"
       id="path2985-6-9-8-4"
       sodipodi:cx="20.518724"
       sodipodi:cy="20.597393"
       sodipodi:rx="20.392454"
       sodipodi:ry="20.392454"
       d="m 40.911179,20.597393 a 20.392454,20.392454 0 1 1 -40.78490871,0 20.392454,20.392454 0 1 1 40.78490871,0 z"
       transform="matrix(0.26265464,0,0,0.26265464,25.041379,16.660003)" />
  </g>
</svg>
